<svg viewBox="0 0 960 420" xmlns="http://www.w3.org/2000/svg" fill="none">
  <defs>
    <marker id="ink13" viewBox="0 0 10 10" refX="8.6" refY="5" markerWidth="7" markerHeight="7" orient="auto-start-reverse">
      <path d="M0.8 1 L8.4 5 L0.8 9" fill="none" stroke="currentColor" stroke-width="1.4" stroke-linecap="round" stroke-linejoin="round"/>
    </marker>
    <marker id="mut13" viewBox="0 0 10 10" refX="8.6" refY="5" markerWidth="7" markerHeight="7" orient="auto-start-reverse">
      <path d="M0.8 1 L8.4 5 L0.8 9" fill="none" stroke="var(--muted-foreground)" stroke-width="1.4" stroke-linecap="round" stroke-linejoin="round"/>
    </marker>
  </defs>

  <g id="tray-a">
    <rect x="195" y="80" width="170" height="260" rx="10" stroke="currentColor" stroke-width="2"/>
  </g>

  <g id="tray-a-contents">
    <rect x="215" y="102" width="130" height="16" rx="3" fill="var(--muted-foreground)" opacity=".4"/>
    <rect x="215" y="127" width="130" height="16" rx="3" fill="var(--muted-foreground)" opacity=".4"/>
    <rect x="215" y="152" width="130" height="16" rx="3" fill="var(--muted-foreground)" opacity=".4"/>
    <rect x="215" y="177" width="130" height="16" rx="3" fill="var(--muted-foreground)" opacity=".4"/>
    <rect x="215" y="202" width="130" height="16" rx="3" fill="var(--muted-foreground)" opacity=".4"/>
    <rect x="215" y="227" width="130" height="16" rx="3" fill="var(--muted-foreground)" opacity=".4"/>
    <rect x="215" y="252" width="130" height="16" rx="3" fill="var(--muted-foreground)" opacity=".4"/>
    <rect x="215" y="277" width="130" height="16" rx="3" fill="var(--muted-foreground)" opacity=".4"/>
    <rect x="215" y="302" width="130" height="16" rx="3" fill="var(--muted-foreground)" opacity=".4"/>
  </g>

  <g id="fold">
    <path d="M365 210 H595" stroke="var(--muted-foreground)" stroke-width="1.5" marker-end="url(#mut13)"/>
    <text x="480" y="194" fill="var(--muted-foreground)" font-size="13" text-anchor="middle">compact</text>
  </g>

  <g id="tray-b">
    <rect x="595" y="80" width="170" height="260" rx="10" stroke="currentColor" stroke-width="2"/>
  </g>

  <g id="summary">
    <rect x="615" y="102" width="130" height="44" rx="3" fill="var(--figure-accent)"/>
  </g>

  <g id="tray-b-contents">
    <rect x="615" y="170" width="130" height="16" rx="3" fill="var(--muted-foreground)" opacity=".4"/>
    <rect x="615" y="195" width="130" height="16" rx="3" fill="var(--muted-foreground)" opacity=".4"/>
    <rect x="615" y="220" width="130" height="16" rx="3" fill="var(--muted-foreground)" opacity=".4"/>
  </g>

  <g id="room">
    <text x="615" y="292" fill="var(--muted-foreground)" font-size="13" text-anchor="start">room</text>
  </g>
</svg>
